<svg width="120" height="33" viewBox="0 0 120 33" fill="none" xmlns="http://www.w3.org/2000/svg">
<g clip-path="url(#clip0_44_2)">
<path d="M69.843 11.5446H63.1081V22.5497C63.1081 26.1908 60.8884 27.1435 59.4248 27.1435C57.284 27.1435 56.0846 26.1908 56.0846 23.46V11.5446H49.3618V23.8939C49.3618 29.2796 51.0622 32.6931 56.9682 32.6931C59.3428 32.6931 61.9603 31.3854 63.2265 29.2887H63.3085V32.0984H69.843V11.5446Z" fill="white"/>
<path d="M71.4279 32.0896H78.1629V3.82281H71.4279V32.0896ZM29.1171 32.0896H48.6875V26.9314H37.674L47.9344 16.6363V11.5449H29.9491V16.7031H39.3775L29.1171 26.8646V32.0896ZM0 32.0896H7.56396L9.34943 27.0224H19.2151L20.958 32.0896H28.6404L18.0642 3.82585H10.5762L0 32.0896ZM14.2716 11.6632H14.3536L17.4812 21.5608H11.0529L14.2716 11.6632Z" fill="white"/>
<path d="M95.5833 3.8504H90.5154V11.2812H94.9608H95.1643V11.9609H100.785V3.8504H99.713V5.52832V5.73162H95.5833V4.79101V3.8504Z" fill="white"/>
<path d="M111.326 23.6092H111.742H114.095V23.321H114.089V19.6344H114.095V17.4983H109.835H109.285V20.9422H106.473V21.5187H110.33V23.6092H111.326Z" fill="white"/>
<path d="M109.096 3.87491H107.635V4.93082H109.096V3.87491Z" fill="white"/>
<path d="M115.339 11.0685H116.046V10.2371V10.0338H116.62V8.3923H117.343V7.57306H115.339V11.0685Z" fill="white"/>
<path d="M117.03 8.80463V10.0335H117.55H118.864V8.80463H117.55H117.03Z" fill="white"/>
<path d="M119.211 10.4433H118.412H117.55H117.031H116.827H116.454V11.2746V11.6691H119.211V10.4433Z" fill="white"/>
<path d="M95.9935 3.44051V3.64684V5.32173H99.3002V3.44051V0.894806H95.9935V3.44051Z" fill="white"/>
<path d="M114.094 24.0399H111.74V24.3736H114.094V24.0399Z" fill="white"/>
<path d="M114.508 20.0438V20.4989V22.9111H115.154V20.7053V20.0438H114.508Z" fill="white"/>
<path d="M107.86 28.8729V27.0372H104.513V27.6653H106.803V28.8729H107.86Z" fill="white"/>
<path d="M118.722 14.3423V13.2591H116.341V14.3423H117.89H118.097H118.722Z" fill="white"/>
<path d="M111.332 25.2985V24.7797H111.326V24.0211H110.126H109.923H109.92V22.9713V21.9275H106.473V23.8907H109.194V25.2985H111.332Z" fill="white"/>
<path d="M108.783 26.6245V25.7112V24.3003H106.265H106.259H105.233H104.21V25.7112V26.6032H108.063H108.269V26.6245H108.783Z" fill="white"/>
<path d="M101.195 3.8504V11.9609V11.9639H106.057V9.05408H109.133V5.58597H107.098H104.214V3.8504H101.195Z" fill="white"/>
<path d="M88.2659 11.6936V13.9692H94.5667H94.6912H94.7519V12.2215V12.1699V11.6936H90.3126H88.2659Z" fill="white"/>
<path d="M99.3001 15.9749V12.3733H98.8719H98.6654H95.1643V14.3789H94.9579H94.8971H94.7726V15.9749H98.8719H99.3001Z" fill="white"/>
<path d="M104.626 5.17536H106.889V1.33405H104.626V3.64612V5.17536Z" fill="white"/>
<path d="M102.291 32.1321H106.393V29.286V29.0797V28.0754H104.31H102.291V32.1321Z" fill="white"/>
<path d="M115.564 20.2954H115.931V15.8746H115.67V14.5486V14.3423H115.877H115.931V13.2591H115.13H114.556H110.253V16.0991V17.0883H114.507V19.634H115.564V20.2954Z" fill="white"/>
<path d="M119.21 12.0822H116.046V11.4814H114.929V11.4784H114.555V12.8498H115.129H116.137H118.925H119.21V12.0822Z" fill="white"/>
<path d="M117.686 15.4652V14.7522H116.341H116.137H116.08V15.4652H116.137H117.686Z" fill="white"/>
<path d="M103.797 23.8909H105.03H106.056V21.9278V20.9416V20.7384V20.532V19.6218H100.757V25.3018H103.797V23.8909Z" fill="white"/>
<path d="M114.146 12.8493V11.0682H114.926V6.79297H113.256V11.6477H110.253V12.8493H114.146Z" fill="white"/>
<path d="M109.546 9.46366H109.543V11.2387H109.834H112.843V6.3809V5.58594H109.546V9.46366Z" fill="white"/>
<path d="M106.056 15.6836V12.3733H100.79H99.7123V16.3846H99.0747V19.2124H106.056V15.6836Z" fill="white"/>
<path d="M108.519 9.46329H106.466V11.9635H106.472V12.1668V12.3579V15.6834H109.833V13.2591V12.8495V11.6479H109.339H109.132V9.46329H108.519Z" fill="white"/>
<path d="M108.879 17.486L108.205 17.4876L108.207 18.1612L108.881 18.1596L108.879 17.486Z" fill="white"/>
<path d="M109.835 17.0886V16.0994H106.473V19.2125V20.5324H108.875V18.5784H107.995H107.791V17.0855H109.285V17.0886H109.835Z" fill="white"/>
</g>
<defs>
<clipPath id="clip0_44_2">
<rect width="119.211" height="31.7895" fill="white" transform="translate(0 0.894775)"/>
</clipPath>
</defs>
</svg>
