<svg xmlns="http://www.w3.org/2000/svg" xmlns:xlink="http://www.w3.org/1999/xlink" viewBox="0 0 182 33" width="182" height="33" style="width: 100%; height: 100%; transform: translate3d(0px, 0px, 0px); content-visibility: visible;" preserveAspectRatio="xMidYMid meet"><defs><clipPath id="__lottie_element_2"><rect width="182" height="33" x="0" y="0"></rect></clipPath><clipPath id="__lottie_element_4"><path d="M0,0 L200,0 L200,200 L0,200z"></path></clipPath><clipPath id="__lottie_element_9"><path d="M0,0 L1920,0 L1920,1080 L0,1080z"></path></clipPath><g id="__lottie_element_13"><g style="display: block;" transform="matrix(1,0,0,1,727.6331787109375,550.1580200195312)" opacity="1"><g opacity="1" transform="matrix(1,0,0,1,0,0)"><path fill="rgb(0,0,0)" fill-opacity="1" d=" M63.020999908447266,-63.020999908447266 C-6.591000080108643,-63.020999908447266 -63.020999908447266,-6.591000080108643 -63.020999908447266,63.020999908447266 C-63.020999908447266,63.020999908447266 63.020999908447266,63.020999908447266 63.020999908447266,63.020999908447266 C63.020999908447266,63.020999908447266 63.020999908447266,-63.020999908447266 63.020999908447266,-63.020999908447266z"></path></g></g></g><clipPath id="__lottie_element_17"><path d="M0,0 L1920,0 L1920,1080 L0,1080z"></path></clipPath><mask id="__lottie_element_13_1" mask-type="alpha"><use xlink:href="#__lottie_element_13"></use></mask><g id="__lottie_element_66"><g style="display: none;"><g><path stroke-linecap="butt" stroke-linejoin="miter" fill-opacity="0" stroke-miterlimit="10"></path></g></g></g><mask id="__lottie_element_66_1" mask-type="alpha"><use xlink:href="#__lottie_element_66"></use></mask><g id="__lottie_element_95"><g style="display: block;" transform="matrix(1.058000087738037,0,0,1.058000087738037,1120.674072265625,551.8394165039062)" opacity="0.5"><g opacity="1" transform="matrix(1,0,0,1,0,0)"><path stroke-linecap="butt" stroke-linejoin="miter" fill-opacity="0" stroke-miterlimit="10" stroke="rgb(255,0,255)" stroke-opacity="1" stroke-width="35" d=" M42.41299819946289,14.119999885559082 C42.41299819946289,14.119999885559082 42.284000396728516,-3.509000062942505 42.284000396728516,-13.067999839782715 C42.284000396728516,-31.013999938964844 19.854999542236328,-46.571998596191406 -0.5929999947547913,-46.571998596191406 C-26.31399917602539,-46.571998596191406 -44.02899932861328,-26.562000274658203 -44.02899932861328,-0.8410000205039978 C-44.02899932861328,24.8799991607666 -26.31399917602539,46.571998596191406 -0.5929999947547913,46.571998596191406 C23.083999633789062,46.571998596191406 40.981998443603516,33.87699890136719 43.676998138427734,11.795999526977539"></path></g></g></g><mask id="__lottie_element_95_1" mask-type="alpha"><use xlink:href="#__lottie_element_95"></use></mask><clipPath id="__lottie_element_105"><path d="M0,0 L1920,0 L1920,1080 L0,1080z"></path></clipPath><g id="__lottie_element_109"><g style="display: none;"><g><path></path></g></g></g><clipPath id="__lottie_element_113"><path d="M0,0 L1920,0 L1920,1080 L0,1080z"></path></clipPath><mask id="__lottie_element_109_1" mask-type="alpha"><use xlink:href="#__lottie_element_109"></use></mask><g id="__lottie_element_162"><g style="display: none;"><g><path stroke-linecap="butt" stroke-linejoin="miter" fill-opacity="0" stroke-miterlimit="10"></path></g></g></g><mask id="__lottie_element_162_1" mask-type="alpha"><use xlink:href="#__lottie_element_162"></use></mask><g id="__lottie_element_191"><g style="display: none;"><g><path stroke-linecap="butt" stroke-linejoin="miter" fill-opacity="0" stroke-miterlimit="10"></path></g></g></g><mask id="__lottie_element_191_1" mask-type="alpha"><use xlink:href="#__lottie_element_191"></use></mask></defs><g clip-path="url(#__lottie_element_2)"><g clip-path="url(#__lottie_element_4)" style="display: block;" transform="matrix(0.8999999761581421,0,0,0.8999999761581421,1,-74)" opacity="1"><g clip-path="url(#__lottie_element_9)" style="display: block;" transform="matrix(0.2312401384115219,0,0,0.2312401384115219,-121.99053955078125,-24.869674682617188)" opacity="1"><g style="display: block;" transform="matrix(1.058000087738037,0,0,1.058000087738037,1226.846435546875,551.9028930664062)" opacity="1"><g opacity="1" transform="matrix(1,0,0,1,0,0)"><path fill="rgb(245,245,245)" fill-opacity="1" d=" M1.0761970281600952,-35.9069938659668 C1.0761970281600952,-35.9069938659668 -0.09603016823530197,-35.9069938659668 -0.09603016823530197,-35.9069938659668 C-0.09603016823530197,-35.9069938659668 -0.09603016823530197,-56.06304168701172 -0.09603016823530197,-56.06304168701172 C-0.09603016823530197,-56.06304168701172 -28.863000869750977,-56.0629997253418 -28.863000869750977,-56.0629997253418 C-28.863000869750977,-56.0629997253418 -28.863000869750977,57.82400131225586 -28.863000869750977,57.82400131225586 C-28.863000869750977,57.82400131225586 1.8578181266784668,57.82394790649414 1.8578181266784668,57.82394790649414 C1.8578181266784668,57.82394790649414 1.8578181266784668,-28.863054275512695 1.8578181266784668,-28.863054275512695 C1.8578181266784668,-28.863054275512695 28.81926918029785,-28.863121032714844 28.81926918029785,-28.863121032714844 C28.81926918029785,-28.863121032714844 28.81940460205078,-57.82123947143555 28.81940460205078,-57.82123947143555 C28.81940460205078,-57.82123947143555 25.107118606567383,-57.82119369506836 25.107118606567383,-57.82119369506836 C10.844629287719727,-57.82109069824219 4.592569351196289,-51.537445068359375 1.0761970281600952,-35.9069938659668z"></path></g></g><g style="display: block;" mask="url(#__lottie_element_95_1)"><g transform="matrix(1.058000087738037,0,0,1.058000087738037,1153.7408447265625,539.0006103515625)" opacity="0.5"><g opacity="1" transform="matrix(1,0,0,1,0,0)"><path fill="rgb(245,245,245)" fill-opacity="1" d=" M-31.18899917602539,-45.62900161743164 C-67.97699737548828,-45.62900161743164 -91.06700134277344,-18.81999969482422 -91.06700134277344,14.053999900817871 C-91.06700134277344,46.928001403808594 -67.19400024414062,71.9749984741211 -31.97100067138672,71.9749984741211 C-1.8359999656677246,71.9749984741211 20.274999618530273,53.58100128173828 26.732999801635742,29.511999130249023 C26.732999801635742,29.511999130249023 -4.184999942779541,29.511999130249023 -4.184999942779541,29.511999130249023 C-6.3379998207092285,39.099998474121094 -16.90399932861328,46.928001403808594 -31.579999923706055,46.928001403808594 C-47.94599914550781,46.928001403808594 -58.58300018310547,35.672000885009766 -60.138999938964844,18.75 C-60.138999938964844,18.75 26.732999801635742,18.75 26.732999801635742,18.75 C26.732999801635742,18.75 26.732999801635742,10.140000343322754 26.732999801635742,10.140000343322754 C26.732999801635742,-21.756000518798828 3.447000026702881,-45.62900161743164 -31.18899917602539,-45.62900161743164z M-59.290000915527344,-2.187999963760376 C-54.76599884033203,-15.163000106811523 -43.75299835205078,-21.756000518798828 -31.18899917602539,-21.756000518798828 C-16.849000930786133,-21.756000518798828 -7.5929999351501465,-13.628000259399414 -3.2009999752044678,-2.187999963760376 C-3.2009999752044678,-2.187999963760376 -59.290000915527344,-2.187999963760376 -59.290000915527344,-2.187999963760376z"></path></g></g></g><g style="display: block;" transform="matrix(0,-1.058000087738037,1.058000087738037,0,1121.295166015625,552.0054931640625)" opacity="0.5"><g opacity="1" transform="matrix(1,0,0,1,0,0)"><path fill="rgb(245,245,245)" fill-opacity="1" d=" M-6.752999782562256,55.46900177001953 C-6.752999782562256,55.46900177001953 14.458000183105469,55.44300079345703 14.458000183105469,55.44300079345703 C14.458000183105469,55.44300079345703 14.479999542236328,-56.94300079345703 14.479999542236328,-56.94300079345703 C14.479999542236328,-56.94300079345703 -6.730000019073486,-56.91699981689453 -6.730000019073486,-56.91699981689453 C-6.730000019073486,-56.91699981689453 -6.752999782562256,55.46900177001953 -6.752999782562256,55.46900177001953z"></path></g></g><g style="display: block;" transform="matrix(1.058000087738037,0,0,1.058000087738037,1153.7408447265625,539.0006103515625)" opacity="1"><g opacity="1" transform="matrix(1,0,0,1,0,0)"><path fill="rgb(245,245,245)" fill-opacity="1" d=" M-31.18899917602539,-45.62900161743164 C-67.97699737548828,-45.62900161743164 -91.06700134277344,-18.81999969482422 -91.06700134277344,14.053999900817871 C-91.06700134277344,46.928001403808594 -67.19400024414062,71.9749984741211 -31.97100067138672,71.9749984741211 C-1.8359999656677246,71.9749984741211 20.274999618530273,53.58100128173828 26.732999801635742,29.511999130249023 C26.732999801635742,29.511999130249023 -4.184999942779541,29.511999130249023 -4.184999942779541,29.511999130249023 C-6.3379998207092285,39.099998474121094 -16.90399932861328,46.928001403808594 -31.579999923706055,46.928001403808594 C-47.94599914550781,46.928001403808594 -58.58300018310547,35.672000885009766 -60.138999938964844,18.75 C-60.138999938964844,18.75 26.732999801635742,18.75 26.732999801635742,18.75 C26.732999801635742,18.75 26.732999801635742,10.140000343322754 26.732999801635742,10.140000343322754 C26.732999801635742,-21.756000518798828 3.447000026702881,-45.62900161743164 -31.18899917602539,-45.62900161743164z M-59.290000915527344,-2.187999963760376 C-54.76599884033203,-15.163000106811523 -43.75299835205078,-21.756000518798828 -31.18899917602539,-21.756000518798828 C-16.849000930786133,-21.756000518798828 -7.5929999351501465,-13.628000259399414 -3.2009999752044678,-2.187999963760376 C-3.2009999752044678,-2.187999963760376 -59.290000915527344,-2.187999963760376 -59.290000915527344,-2.187999963760376z"></path></g></g><g style="display: block;" transform="matrix(1.058000087738037,0,0,1.058000087738037,1017.0197143554688,539.1201171875)" opacity="1"><g opacity="1" transform="matrix(1,0,0,1,0,0)"><path fill="rgb(245,245,245)" fill-opacity="1" d=" M11.154999732971191,44.858001708984375 C11.154999732971191,44.858001708984375 34.441001892089844,44.858001708984375 34.441001892089844,44.858001708984375 C34.441001892089844,44.858001708984375 34.441001892089844,69.90499877929688 34.441001892089844,69.90499877929688 C34.441001892089844,69.90499877929688 15.069000244140625,69.90499877929688 15.069000244140625,69.90499877929688 C-5.2820000648498535,69.90499877929688 -17.805999755859375,62.861000061035156 -17.805999755859375,37.03099822998047 C-17.805999755859375,37.03099822998047 -17.805999755859375,-18.93400001525879 -17.805999755859375,-18.93400001525879 C-17.805999755859375,-18.93400001525879 -31.649999618530273,-18.93400001525879 -31.649999618530273,-18.93400001525879 C-34.077999114990234,-18.93400001525879 -35.34299850463867,-21.822999954223633 -33.698001861572266,-23.607999801635742 C-33.698001861572266,-23.607999801635742 6.321000099182129,-69.00199890136719 6.321000099182129,-69.00199890136719 C8.039999961853027,-70.86699676513672 11.154999732971191,-69.6510009765625 11.154999732971191,-67.11399841308594 C11.154999732971191,-67.11399841308594 11.154999732971191,-43.98099899291992 11.154999732971191,-43.98099899291992 C11.154999732971191,-43.98099899291992 34.244998931884766,-43.98099899291992 34.244998931884766,-43.98099899291992 C34.244998931884766,-43.98099899291992 34.244998931884766,-18.93400001525879 34.244998931884766,-18.93400001525879 C34.244998931884766,-18.93400001525879 11.154999732971191,-18.93400001525879 11.154999732971191,-18.93400001525879 C11.154999732971191,-18.93400001525879 11.154999732971191,44.858001708984375 11.154999732971191,44.858001708984375z"></path></g></g><g style="display: block;" transform="matrix(1.058000087738037,0,0,1.058000087738037,926.75537109375,551.90185546875)" opacity="1"><g opacity="1" transform="matrix(1,0,0,1,0,0)"><path fill="rgb(245,245,245)" fill-opacity="1" d=" M13.501999855041504,-57.82400131225586 C-0.39100000262260437,-57.82400131225586 -10.76200008392334,-49.80099868774414 -15.850000381469727,-37.277000427246094 C-15.850000381469727,-37.277000427246094 -16.82900047302246,-37.277000427246094 -16.82900047302246,-37.277000427246094 C-16.82900047302246,-37.277000427246094 -16.82900047302246,-56.0629997253418 -16.82900047302246,-56.0629997253418 C-16.82900047302246,-56.0629997253418 -44.41999816894531,-56.0629997253418 -44.41999816894531,-56.0629997253418 C-44.41999816894531,-56.0629997253418 -44.41999816894531,57.82400131225586 -44.41999816894531,57.82400131225586 C-44.41999816894531,57.82400131225586 -15.458999633789062,57.82400131225586 -15.458999633789062,57.82400131225586 C-15.458999633789062,57.82400131225586 -15.458999633789062,-30.42799949645996 -15.458999633789062,-30.42799949645996 C-15.458999633789062,-30.42799949645996 3.9140000343322754,-30.42799949645996 3.9140000343322754,-30.42799949645996 C12.32800006866455,-30.42799949645996 15.458999633789062,-28.66699981689453 15.458999633789062,-19.666000366210938 C15.458999633789062,-19.666000366210938 15.458999633789062,57.82400131225586 15.458999633789062,57.82400131225586 C15.458999633789062,57.82400131225586 44.41999816894531,57.82400131225586 44.41999816894531,57.82400131225586 C44.41999816894531,57.82400131225586 44.41999816894531,-25.340999603271484 44.41999816894531,-25.340999603271484 C44.41999816894531,-48.236000061035156 33.46200180053711,-57.82400131225586 13.501999855041504,-57.82400131225586z"></path></g></g><g style="display: block;" transform="matrix(1.058000087738037,0,0,1.058000087738037,842.0794067382812,552.8339233398438)" opacity="1"><g opacity="1" transform="matrix(1,0,0,1,0,0)"><path fill="rgb(245,245,245)" fill-opacity="1" d=" M-14.479999542236328,56.94300079345703 C-14.479999542236328,56.94300079345703 14.479999542236328,56.94300079345703 14.479999542236328,56.94300079345703 C14.479999542236328,56.94300079345703 14.479999542236328,-56.94300079345703 14.479999542236328,-56.94300079345703 C14.479999542236328,-56.94300079345703 -14.479999542236328,-56.94300079345703 -14.479999542236328,-56.94300079345703 C-14.479999542236328,-56.94300079345703 -14.479999542236328,56.94300079345703 -14.479999542236328,56.94300079345703z"></path></g></g><g style="display: none;"><g><path></path></g></g><g style="display: none;" mask="url(#__lottie_element_66_1)"><g><g><path></path></g></g></g><g style="display: none;"><g><path></path></g></g><g style="display: none;"><g><path></path></g></g><g style="display: none;"><g><path></path></g></g><g style="display: none;"><g><path></path></g></g><g style="display: block;" mask="url(#__lottie_element_13_1)"><g clip-path="url(#__lottie_element_17)" transform="matrix(1,0,0,1,193.74017333984375,0)" opacity="1"><g style="display: block;" transform="matrix(1,-0.000007276285032276064,0.000007276285032276064,1,534.6849975585938,610.3484497070312)" opacity="1"><g opacity="1" transform="matrix(1,0,0,1,0,0)"><path stroke-linecap="butt" stroke-linejoin="miter" fill-opacity="0" stroke-miterlimit="10" stroke="rgb(245,245,245)" stroke-opacity="1" stroke-width="6" d=" M-62.22999954223633,0 C-62.22999954223633,0 62.22999954223633,0 62.22999954223633,0"></path></g></g><g style="display: block;" transform="matrix(1,-0.000007278270913957385,0.000007278270913957385,1,528.3558959960938,601.2525024414062)" opacity="1"><g opacity="1" transform="matrix(1,0,0,1,0,0)"><path stroke-linecap="butt" stroke-linejoin="miter" fill-opacity="0" stroke-miterlimit="10" stroke="rgb(245,245,245)" stroke-opacity="1" stroke-width="7" d=" M-54.124000549316406,-11.678000450134277 C-54.124000549316406,-11.678000450134277 54.124000549316406,11.678000450134277 54.124000549316406,11.678000450134277"></path></g></g><g style="display: block;" transform="matrix(1,-0.000007277650183823425,0.000007277650183823425,1,531.2308349609375,590.4534912109375)" opacity="1"><g opacity="1" transform="matrix(1,0,0,1,0,0)"><path stroke-linecap="butt" stroke-linejoin="miter" fill-opacity="0" stroke-miterlimit="10" stroke="rgb(245,245,245)" stroke-opacity="1" stroke-width="9" d=" M-51.249000549316406,-22.476999282836914 C-51.249000549316406,-22.476999282836914 51.249000549316406,22.476999282836914 51.249000549316406,22.476999282836914"></path></g></g><g style="display: block;" transform="matrix(1,-0.000007277112217707327,0.000007277112217707327,1,537.1307373046875,578.616455078125)" opacity="1"><g opacity="1" transform="matrix(1,0,0,1,0,0)"><path stroke-linecap="butt" stroke-linejoin="miter" fill-opacity="0" stroke-miterlimit="10" stroke="rgb(245,245,245)" stroke-opacity="1" stroke-width="11" d=" M-45.3489990234375,-34.31399917602539 C-45.3489990234375,-34.31399917602539 45.3489990234375,34.31399917602539 45.3489990234375,34.31399917602539"></path></g></g><g style="display: block;" transform="matrix(1,-0.000007277112217707327,0.000007277112217707327,1,548.8556518554688,567.1734008789062)" opacity="1"><g opacity="1" transform="matrix(1,0,0,1,0,0)"><path stroke-linecap="butt" stroke-linejoin="miter" fill-opacity="0" stroke-miterlimit="10" stroke="rgb(245,245,245)" stroke-opacity="1" stroke-width="15" d=" M-36.611000061035156,-45.75699996948242 C-36.611000061035156,-45.75699996948242 36.611000061035156,45.75699996948242 36.611000061035156,45.75699996948242"></path></g></g><g style="display: block;" transform="matrix(1,-0.0000072759953582135495,0.0000072759953582135495,1,564.2315673828125,557.6192626953125)" opacity="1"><g opacity="1" transform="matrix(1,0,0,1,0,0)"><path stroke-linecap="butt" stroke-linejoin="miter" fill-opacity="0" stroke-miterlimit="10" stroke="rgb(245,245,245)" stroke-opacity="1" stroke-width="16" d=" M-21.235000610351562,-55.31100082397461 C-21.235000610351562,-55.31100082397461 21.235000610351562,55.31100082397461 21.235000610351562,55.31100082397461"></path></g></g><g style="display: block;" transform="matrix(1,-0.000007277650183823425,0.000007277650183823425,1,585.466552734375,552.6801147460938)" opacity="1"><g opacity="1" transform="matrix(1,0,0,1,0,0)"><path stroke-linecap="butt" stroke-linejoin="miter" fill-opacity="0" stroke-miterlimit="10" stroke="rgb(245,245,245)" stroke-opacity="1" stroke-width="23" d=" M0,-60.25 C0,-60.25 0,60.25 0,60.25"></path></g></g><g style="display: block;" transform="matrix(0.9999951124191284,-0.000007277614713530056,0.000007277614713530056,0.9999951124191284,959.9976806640625,539.9977416992188)" opacity="1"><g opacity="1" transform="matrix(1,0,0,1,0,0)"><path fill="rgb(245,245,245)" fill-opacity="1" d=" M-424.5400085449219,67.76599884033203 C-424.5400085449219,67.76599884033203 -424.5400085449219,67.76599884033203 -424.5400085449219,67.76599884033203 C-424.5400085449219,67.76599884033203 -424.1969909667969,66.04299926757812 -424.1969909667969,66.04299926757812 C-424.1969909667969,66.04299926757812 -424.1969909667969,66.04299926757812 -424.1969909667969,66.04299926757812 C-424.1969909667969,66.04299926757812 -422.99200439453125,59.67399978637695 -422.99200439453125,59.67399978637695 C-422.99200439453125,59.67399978637695 -422.99200439453125,59.67399978637695 -422.99200439453125,59.67399978637695 C-422.99200439453125,59.67399978637695 -422.4750061035156,57.26499938964844 -422.4750061035156,57.26499938964844 C-422.4750061035156,57.26499938964844 -422.4750061035156,57.26499938964844 -422.4750061035156,57.26499938964844 C-422.4750061035156,57.26499938964844 -419.72100830078125,49.518001556396484 -419.72100830078125,49.518001556396484 C-419.72100830078125,49.518001556396484 -419.72100830078125,49.518001556396484 -419.72100830078125,49.518001556396484 C-419.72100830078125,49.518001556396484 -418.5159912109375,47.79600143432617 -418.5159912109375,47.79600143432617 C-418.5159912109375,47.79600143432617 -418.5159912109375,47.79600143432617 -418.5159912109375,47.79600143432617 C-418.5159912109375,47.79600143432617 -413.52398681640625,39.36199951171875 -413.52398681640625,39.36199951171875 C-413.52398681640625,39.36199951171875 -413.52398681640625,39.36199951171875 -413.52398681640625,39.36199951171875 C-413.52398681640625,39.36199951171875 -411.9739990234375,37.29600143432617 -411.9739990234375,37.29600143432617 C-411.9739990234375,37.29600143432617 -411.9739990234375,37.29600143432617 -411.9739990234375,37.29600143432617 C-411.9739990234375,37.29600143432617 -402.3340148925781,26.795000076293945 -402.3340148925781,26.795000076293945 C-402.3340148925781,26.795000076293945 -402.3340148925781,26.795000076293945 -402.3340148925781,26.795000076293945 C-402.3340148925781,26.795000076293945 -400.6130065917969,25.246000289916992 -400.6130065917969,25.246000289916992 C-400.6130065917969,25.246000289916992 -400.6130065917969,25.246000289916992 -400.6130065917969,25.246000289916992 C-400.6130065917969,25.246000289916992 -387.7019958496094,18.016000747680664 -387.7019958496094,18.016000747680664 C-387.7019958496094,18.016000747680664 -387.7019958496094,18.016000747680664 -387.7019958496094,18.016000747680664 C-387.7019958496094,18.016000747680664 -385.9800109863281,17.5 -385.9800109863281,17.5 C-385.9800109863281,17.5 -385.9800109863281,17.5 -385.9800109863281,17.5 C-385.9800109863281,17.5 -363.0849914550781,17.5 -363.0849914550781,17.5 C-363.0849914550781,17.5 -363.0849914550781,72.93000030517578 -363.0849914550781,72.93000030517578 C-363.0849914550781,72.93000030517578 -424.5400085449219,72.93000030517578 -424.5400085449219,72.93000030517578 C-424.5400085449219,72.93000030517578 -424.5400085449219,67.76599884033203 -424.5400085449219,67.76599884033203z"></path></g></g><g style="display: none;"><g><path></path></g></g></g></g></g><g clip-path="url(#__lottie_element_105)" style="display: none;"><g style="display: none;"><g><path></path></g></g><g style="display: none;" mask="url(#__lottie_element_191_1)"><g><g><path></path></g></g></g><g style="display: none;"><g><path></path></g></g><g style="display: none;"><g><path></path></g></g><g style="display: none;"><g><path></path></g></g><g style="display: none;"><g><path></path></g></g><g style="display: none;"><g><path></path></g></g><g style="display: none;"><g><path></path></g></g><g style="display: none;" mask="url(#__lottie_element_162_1)"><g><g><path></path></g></g></g><g style="display: none;"><g><path></path></g></g><g style="display: none;"><g><path></path></g></g><g style="display: none;"><g><path></path></g></g><g style="display: none;"><g><path></path></g></g><g style="display: none;" mask="url(#__lottie_element_109_1)"><g clip-path="url(#__lottie_element_113)"><g style="display: none;"><g><path stroke-linecap="butt" stroke-linejoin="miter" fill-opacity="0" stroke-miterlimit="10"></path></g></g><g style="display: none;"><g><path stroke-linecap="butt" stroke-linejoin="miter" fill-opacity="0" stroke-miterlimit="10"></path></g></g><g style="display: none;"><g><path stroke-linecap="butt" stroke-linejoin="miter" fill-opacity="0" stroke-miterlimit="10"></path></g></g><g style="display: none;"><g><path stroke-linecap="butt" stroke-linejoin="miter" fill-opacity="0" stroke-miterlimit="10"></path></g></g><g style="display: none;"><g><path stroke-linecap="butt" stroke-linejoin="miter" fill-opacity="0" stroke-miterlimit="10"></path></g></g><g style="display: none;"><g><path stroke-linecap="butt" stroke-linejoin="miter" fill-opacity="0" stroke-miterlimit="10"></path></g></g><g style="display: none;"><g><path stroke-linecap="butt" stroke-linejoin="miter" fill-opacity="0" stroke-miterlimit="10"></path></g></g><g style="display: none;"><g><path></path></g></g><g style="display: none;"><g><path></path></g></g></g></g></g></g></g></svg>